<?xml version="1.0" standalone="no"?>
<svg version="1.1" preserveAspectRatio="none" viewBox="0 -2.001833180568287 48 48" class="ng-element" data-id="bf414f863631658174332cdb7dac67c7" fill="#000000" style="width: 48px; height: 48px;" xmlns="http://www.w3.org/2000/svg"><path d="M48,19.4c0-1.8-1.2-3.3-3.2-4.6c0-0.1,0.1-0.2,0.1-0.3H45v-6h0c0,0,0,0,0-0.1C45,3,33.4,0,22.5,0S0,2.9,0,8.5  c0,0,0,0.1,0,0.1h0v6h0.1c0.3,1.4,1.5,2.6,3.1,3.6C3.1,18.6,3,19,3,19.4c0,0,0,0.1,0,0.1h0v6h0.1c0,0.1,0.1,0.2,0.1,0.3  C1.2,27,0,28.6,0,30.4c0,0,0,0.1,0,0.1h0v6h0.1C1.3,41.7,12.2,44,22.5,44s21.2-2.3,22.4-7.5H45v-6h0c0,0,0-0.1,0-0.1  c0-0.4-0.1-0.8-0.2-1.1c1.6-1,2.7-2.2,3.1-3.7H48v-6h0C48,19.5,48,19.4,48,19.4z M22.5,2C34.6,2,43,5.5,43,8.6  c0,3.1-8.4,6.5-20.5,6.5S2,11.7,2,8.6C2,5.5,10.4,2,22.5,2z M43,12.3v1.4c0,0.8-0.4,1.5-1,2.2V13C42.4,12.8,42.7,12.5,43,12.3z   M40,14.1v3.3c-0.3,0.2-0.6,0.3-1,0.5v-3.3C39.3,14.4,39.7,14.2,40,14.1z M37,15.2v3.3c-0.6,0.2-1.3,0.4-2,0.5v-3.3  C35.7,15.6,36.4,15.4,37,15.2z M33,16.2v3.3c-1.5,0.3-3.2,0.5-5,0.6v-3.2C29.7,16.7,31.4,16.5,33,16.2z M26,17v3.2  c-1.1,0-2.3,0.1-3.5,0.1c-0.2,0-0.3,0-0.5,0v-3.1c0.2,0,0.3,0,0.5,0C23.7,17.1,24.8,17.1,26,17z M20,17v3.1c-1.4,0-2.7-0.1-4-0.2  v-3.2C17.3,16.9,18.7,17,20,17z M14,16.5v3.2c-0.7-0.1-1.4-0.2-2-0.3v-3.3C12.7,16.3,13.3,16.4,14,16.5z M10,15.7v3.3  c-0.7-0.2-1.4-0.3-2-0.5v-3.3C8.6,15.4,9.3,15.6,10,15.7z M5,17.3v-3.3c0.3,0.1,0.7,0.3,1,0.4v3.3C5.6,17.7,5.3,17.5,5,17.3z   M3,15.9c-0.6-0.7-1-1.4-1-2.2v-1.4c0.3,0.3,0.6,0.5,1,0.7V15.9z M5,23.1c0.3,0.3,0.6,0.5,1,0.7v2.9c-0.6-0.7-1-1.4-1-2.2V23.1z   M3,37.7c-0.6-0.7-1-1.4-1-2.2V34c0.3,0.3,0.6,0.5,1,0.7V37.7z M6,39.6c-0.4-0.2-0.7-0.3-1-0.5v-3.3c0.3,0.1,0.7,0.3,1,0.4V39.6z   M10,40.8c-0.7-0.2-1.4-0.3-2-0.5V37c0.6,0.2,1.3,0.4,2,0.5V40.8z M14,41.5c-0.7-0.1-1.4-0.2-2-0.3v-3.3c0.7,0.1,1.3,0.2,2,0.3V41.5  z M20,42c-1.4,0-2.7-0.1-4-0.2v-3.2c1.3,0.1,2.7,0.2,4,0.3V42z M26,41.9C24.9,42,23.7,42,22.5,42c-0.2,0-0.3,0-0.5,0v-3.1  c0.2,0,0.3,0,0.5,0c1.2,0,2.3,0,3.5-0.1V41.9z M33,41.2c-1.5,0.3-3.2,0.5-5,0.6v-3.2c1.7-0.2,3.4-0.4,5-0.7V41.2z M37,40.3  c-0.6,0.2-1.3,0.4-2,0.5v-3.3c0.7-0.2,1.4-0.3,2-0.5V40.3z M40,39.1c-0.3,0.2-0.6,0.3-1,0.5v-3.3c0.3-0.1,0.7-0.3,1-0.4V39.1z   M43,35.5c0,0.8-0.4,1.5-1,2.2v-2.9c0.4-0.2,0.7-0.5,1-0.7V35.5z M43,30.4c0,3.1-8.4,6.5-20.5,6.5S2,33.4,2,30.4  c0-0.9,0.8-1.9,2.2-2.8C7.4,31.4,16.7,33,25.5,33c6.4,0,13.1-0.9,17.5-2.8C43,30.3,43,30.3,43,30.4z M8,28.2v-3.3  c0.3,0.1,0.7,0.3,1,0.4v3.3C8.6,28.5,8.3,28.3,8,28.2z M11,29.4V26c0.6,0.2,1.3,0.4,2,0.5v3.3C12.3,29.7,11.6,29.5,11,29.4z   M15,30.3V27c0.7,0.1,1.3,0.2,2,0.3v3.2C16.3,30.5,15.6,30.4,15,30.3z M19,30.8v-3.2c1.3,0.1,2.7,0.2,4,0.3V31  C21.6,31,20.3,30.9,19,30.8z M25,31v-3.1c0.2,0,0.3,0,0.5,0c1.2,0,2.3,0,3.5-0.1V31c-1.1,0.1-2.3,0.1-3.5,0.1  C25.3,31.1,25.2,31,25,31z M31,30.9v-3.2c1.7-0.2,3.4-0.4,5-0.7v3.3C34.5,30.5,32.8,30.7,31,30.9z M38,29.9v-3.3  c0.7-0.2,1.4-0.3,2-0.5v3.4C39.4,29.5,38.7,29.7,38,29.9z M43,28.2c-0.3,0.2-0.6,0.3-1,0.5v-3.3c0.3-0.1,0.7-0.3,1-0.4V28.2z   M46,24.5c0,0.8-0.4,1.5-1,2.2v-2.9c0.4-0.2,0.7-0.5,1-0.7V24.5z M25.5,25.9C13.4,25.9,5,22.5,5,19.4c0-0.1,0-0.2,0-0.3  c4.4,2,11,3,17.5,3c8.8,0,18-1.9,21.2-5.5c1.4,0.9,2.3,1.9,2.3,2.8C46,22.5,37.6,25.9,25.5,25.9z" fill="#000000"/><g/></svg>