<?xml version="1.0" encoding="utf-8"?>
<!-- Generator: Adobe Illustrator 21.0.2, SVG Export Plug-In . SVG Version: 6.00 Build 0)  -->
<svg version="1.1" xmlns="http://www.w3.org/2000/svg" xmlns:xlink="http://www.w3.org/1999/xlink" x="0px" y="0px"
	 viewBox="0 0 303 305" style="enable-background:new 0 0 303 305;" xml:space="preserve">
<style type="text/css">
	.st0{fill:none;stroke:#FFFFFF;stroke-width:7;stroke-miterlimit:10;}
	.st1{display:none;}
	.st2{display:inline;}
	.st3{fill:none;stroke:#000000;}
	.st4{fill:#FFFFFF;}
	.st5{fill:#FFFFFF;stroke:#FFFFFF;stroke-miterlimit:10;}
	.st6{fill:none;stroke:#FFFFFF;stroke-width:11;stroke-miterlimit:10;}
</style>
<g id="Layer_6">
	<circle class="st0" cx="149.1" cy="148.6" r="100.1"/>
</g>
<g id="Layer_5" class="st1">
</g>
<g id="Layer_1" class="st1">
	
		<text transform="matrix(1 0 0 1 357.375 478.6719)" style="display:inline;fill:none;stroke:#000000; font-family:'MyriadPro-Regular'; font-size:170.4199px;">$</text>
</g>
<g id="Layer_2">
	<circle class="st4" cx="171.1" cy="106.9" r="12.3"/>
	<circle class="st4" cx="146.8" cy="78.2" r="12.8"/>
	<circle class="st4" cx="124.8" cy="110.5" r="12.3"/>
	<circle class="st4" cx="146.8" cy="147" r="12.2"/>
	<circle class="st4" cx="167.6" cy="189.8" r="11.7"/>
	<circle class="st4" cx="111.5" cy="184.6" r="13.3"/>
	<circle class="st4" cx="146.8" cy="220.9" r="12.2"/>
</g>
<g id="Layer_4">
	<g>
		<path class="st5" d="M149.1,285.6c-75.6,0-137-61.5-137-137s61.5-137,137-137s137,61.5,137,137S224.6,285.6,149.1,285.6z
			 M149.1,32.3C85,32.3,32.8,84.5,32.8,148.6S85,264.9,149.1,264.9s116.3-52.2,116.3-116.3S213.2,32.3,149.1,32.3z"/>
	</g>
</g>
<g id="Layer_3">
	<path class="st6" d="M146.8,86.3v15.2c11.8-0.9,19,2.4,24.3,5.3"/>
	<path class="st6" d="M125.3,108.5c-5.4,7.4-8.8,19.6-2.7,26.9c4.4,5.3,16.4,11,19.5,11.5"/>
	<path class="st6" d="M146.8,147c46.5,7.6,27.3,42.8,15.5,42.8"/>
	<path class="st6" d="M146.2,215.2l-0.8-19.6c-11.1,1.1-27.6-3.6-33.9-10.5"/>
</g>
</svg>
