<svg id="Layer_1" data-name="Layer 1" xmlns="http://www.w3.org/2000/svg" viewBox="0 0 170.23 148.07"><title>icon</title><path d="M176.31,68.94c-4.08-2.27-7.94-4.84-12.33-6.36a42.93,42.93,0,0,0-49.34,16.53,42.14,42.14,0,0,0,2.95,51.39c2.48,2.85,2.74,4.33-.15,7-6.24,5.76-12.16,11.87-18.06,18-1.77,1.83-2.77,2-4.7.09C73.2,133.91,51.25,112.72,30.17,90.7c-26-27.13-15.62-69.09,19.29-79.6,15.89-4.78,30.71-1.85,43.65,8.6,3,2.45,4.5,2.67,7.61.09a47.49,47.49,0,0,1,56.28-3A46.55,46.55,0,0,1,176.31,68.94Z" transform="translate(-15.66 -8.87)" style="fill:#fff"/><path d="M149.67,67.27a35.72,35.72,0,1,0,36.22,35.49A35.84,35.84,0,0,0,149.67,67.27Zm6.05,53c-2.4.79-3.27,1.94-2.93,4.27.31,2.18-.64,2.95-2.81,2.86-1.8-.08-3.48,0-3-2.52.53-3-1.23-3.31-3.67-3.69-6.45-1-6.65-1.68-5.46-6.42.66-2.63,1.67-2.19,3.41-1.44a17.18,17.18,0,0,0,8.8,1.19,3.25,3.25,0,0,0,3.47-2.62,4.47,4.47,0,0,0-1.94-4.37c-2.54-1.21-5.25-2.06-7.78-3.29-4-1.93-6.9-4.8-6.67-9.61.23-4.63,2.76-7.74,7.07-9.31,1.83-.67,3.37-1.28,2.94-3.72s.92-3.27,3.22-2.92c.88.12,2.6-.33,2.42.89-.78,5.3,3.32,4.64,6.21,5.31,3.47.8,2,3,1.72,5-.39,2.72-1.78,2.33-3.79,1.61a12.16,12.16,0,0,0-7.83-.65,3.5,3.5,0,0,0-2.78,2.56,2.87,2.87,0,0,0,1.85,3.2c2.52,1.25,5.11,2.35,7.69,3.48,4.44,1.95,7.47,4.85,7.36,10.15S160.37,118.7,155.72,120.24Z" transform="translate(-15.66 -8.87)" style="fill:#fff"/></svg>